<svg width="37" height="36" viewBox="0 0 37 36" fill="none" xmlns="http://www.w3.org/2000/svg">
<path d="M33.9028 0.433228L3.44914 0.433228C2.05371 0.433228 0.919922 1.55483 0.919922 2.93169L0.919922 32.5884C0.919922 33.9653 2.05371 35.0869 3.44914 35.0869L33.9028 35.0869C35.2982 35.0869 36.4399 33.9653 36.4399 32.5884L36.4399 2.93169C36.4399 1.55483 35.2982 0.433228 33.9028 0.433228ZM11.6552 30.1364H6.39064L6.39064 13.5985L11.6631 13.5985L11.6631 30.1364H11.6552ZM9.02292 11.3398C7.33414 11.3398 5.97042 10.0017 5.97042 8.3618C5.97042 6.72194 7.33414 5.38375 9.02292 5.38375C10.7038 5.38375 12.0754 6.72194 12.0754 8.3618C12.0754 10.0094 10.7117 11.3398 9.02292 11.3398ZM31.3894 30.1364H26.1249V22.0918C26.1249 20.1734 26.0852 17.7059 23.3895 17.7059C20.6462 17.7059 20.226 19.7944 20.226 21.9525V30.1364L14.9614 30.1364L14.9614 13.5985H20.0119L20.0119 15.8572H20.0833C20.7889 14.5577 22.5094 13.1886 25.0704 13.1886C30.3984 13.1886 31.3894 16.6152 31.3894 21.0707V30.1364Z" fill="#515151" fill-opacity="0.5"/>
</svg>
