<svg width="46" height="36" viewBox="0 0 46 36" fill="none" xmlns="http://www.w3.org/2000/svg">
<path d="M45.5852 7.84286C45.5852 3.68047 42.6188 0.332066 38.9533 0.332066C33.9883 0.0924972 28.9247 0 23.75 0L22.1369 0C16.9747 0 11.9022 0.0924973 6.93719 0.332991C3.28066 0.332991 0.314217 3.6999 0.314217 7.86229C0.0901657 11.1543 -0.00483225 14.4472 0.000544991 17.7401C-0.00841708 21.033 0.0931531 24.329 0.305255 27.6281C0.305255 31.7905 3.2717 35.1666 6.92822 35.1666C12.1441 35.4164 17.4945 35.5274 22.9345 35.5181C28.3834 35.5366 33.7188 35.4194 38.9407 35.1666C42.6062 35.1666 45.5727 31.7905 45.5727 27.6281C45.7877 24.3259 45.8863 21.033 45.8774 17.7308C45.8977 14.4379 45.8003 11.1419 45.5852 7.84286ZM18.552 26.8141L18.552 8.63834L31.547 17.7216L18.552 26.8141Z" fill="#515151" fill-opacity="0.5"/>
</svg>
