<svg width="37" height="36" viewBox="0 0 37 36" fill="none" xmlns="http://www.w3.org/2000/svg">
<path d="M5.71393 0C2.91515 0 0.639648 2.2755 0.639648 5.07429L0.639648 30.4457C0.639648 33.2445 2.91515 35.52 5.71393 35.52L31.0854 35.52C33.8841 35.52 36.1596 33.2445 36.1596 30.4457L36.1596 5.07429C36.1596 2.2755 33.8841 0 31.0854 0L5.71393 0ZM29.2697 6.66L21.0399 16.0633L30.7206 28.86H23.1409L17.2104 21.0979L10.4156 28.86H6.64951L15.4502 18.7986L6.16586 6.66L13.9359 6.66L19.3035 13.7561L25.5037 6.66L29.2697 6.66ZM26.2727 26.6083L12.8021 8.79279H10.5583L24.1796 26.6083H26.2648H26.2727Z" fill="#515151" fill-opacity="0.5"/>
</svg>
