<svg width="37" height="36" viewBox="0 0 37 36" fill="none" xmlns="http://www.w3.org/2000/svg">
<path d="M32.0694 0.295898L4.44276 0.295898C2.27209 0.295898 0.496094 2.0719 0.496094 4.24257L0.496094 31.8692C0.496094 34.0419 2.27209 35.8159 4.44276 35.8159H18.2561V22.0026L14.3094 22.0026V17.1186L18.2561 17.1186L18.2561 13.0732C18.2561 8.80294 20.6478 5.80347 25.6877 5.80347L29.2456 5.80742V10.948H26.8835C24.922 10.948 24.1761 12.4201 24.1761 13.7856L24.1761 17.1205H29.2436L28.1228 22.0026H24.1761V35.8159L32.0694 35.8159C34.2401 35.8159 36.0161 34.0419 36.0161 31.8692L36.0161 4.24257C36.0161 2.0719 34.2401 0.295898 32.0694 0.295898Z" fill="#515151" fill-opacity="0.6"/>
</svg>
