<svg width="88" height="88" viewBox="0 0 88 88" fill="none" xmlns="http://www.w3.org/2000/svg">
<path d="M82.577 19.2501L79.277 19.0658C72.7003 18.6918 66.2703 16.9727 60.3844 14.0147C54.4986 11.0568 49.282 6.92291 45.0574 1.86869C44.9237 1.72093 44.7606 1.60283 44.5784 1.522C44.3963 1.44117 44.1993 1.39941 44 1.39941C43.8008 1.39941 43.6037 1.44117 43.4216 1.522C43.2395 1.60283 43.0763 1.72093 42.9426 1.86869C38.7189 6.92276 33.5033 11.0568 27.6185 14.0152C21.7336 16.9736 15.3045 18.6935 8.72852 19.0686L5.42302 19.2501C5.07185 19.2698 4.74159 19.4233 4.50015 19.679C4.25872 19.9348 4.12447 20.2734 4.12502 20.6251V39.2659C4.11512 50.5558 8.08211 61.4884 15.3297 70.1448C22.5772 78.8012 32.6422 84.6282 43.758 86.6031C43.918 86.6324 44.082 86.6324 44.242 86.6031C55.3578 84.6282 65.4228 78.8012 72.6704 70.1448C79.9179 61.4884 83.8849 50.5558 83.875 39.2659V20.6251C83.8756 20.2734 83.7413 19.9348 83.4999 19.679C83.2585 19.4233 82.9282 19.2698 82.577 19.2501ZM81.125 39.2659C81.1345 49.8679 77.4239 60.1372 70.6399 68.2846C63.8559 76.4319 54.4284 81.9409 44 83.8517C33.5716 81.9409 24.1442 76.4319 17.3601 68.2846C10.5761 60.1372 6.86558 49.8679 6.87502 39.2659V21.9258L8.88114 21.8131C15.5619 21.4326 22.1021 19.7392 28.128 16.8297C34.1539 13.9202 39.5473 9.85161 44 4.85657C48.4527 9.85161 53.8461 13.9202 59.872 16.8297C65.8979 19.7392 72.4382 21.4326 79.1189 21.8131L81.125 21.9258V39.2659Z" fill="url(#paint0_linear_774_4583)"/>
<path d="M77.1238 24.4255C65.0575 23.3103 53.7208 18.1555 44.9488 9.79553C44.693 9.55176 44.3533 9.41577 44 9.41577C43.6467 9.41577 43.307 9.55176 43.0513 9.79553C34.2792 18.1555 22.9425 23.3103 10.8763 24.4255C10.5334 24.4565 10.2147 24.6149 9.98304 24.8695C9.75137 25.1241 9.62361 25.4563 9.62501 25.8005V39.2755C9.6514 49.0889 13.0559 58.5939 19.2661 66.1923C25.4762 73.7908 34.1133 79.0192 43.725 80.9985C43.9065 81.0356 44.0935 81.0356 44.275 80.9985C53.8883 79.0189 62.5266 73.789 68.737 66.1886C74.9473 58.5882 78.3508 49.0809 78.375 39.2659V25.7909C78.374 25.4484 78.2452 25.1185 78.0137 24.866C77.7823 24.6134 77.4649 24.4564 77.1238 24.4255ZM53.625 35.8875C53.1725 35.7956 52.7118 35.7496 52.25 35.75H50.875V33C50.8749 32.8004 50.9183 32.6032 51.0021 32.422C51.0859 32.2408 51.2082 32.0801 51.3604 31.9509C51.5143 31.8193 51.6956 31.7237 51.8911 31.6709C52.0866 31.6181 52.2914 31.6094 52.4906 31.6457C52.8237 31.7271 53.1184 31.921 53.3251 32.1945C53.5317 32.4681 53.6377 32.8046 53.625 33.1472V35.8875ZM48.125 33V35.75H45.9443C45.7532 35.7524 45.5627 35.7718 45.375 35.8078V31.625C45.3749 31.424 45.4189 31.2255 45.5038 31.0433C45.5888 30.8612 45.7126 30.6998 45.8667 30.5707C46.0207 30.4416 46.2012 30.3478 46.3954 30.296C46.5896 30.2441 46.7927 30.2355 46.9906 30.2707C47.3237 30.3521 47.6184 30.546 47.8251 30.8195C48.0317 31.0931 48.1377 31.4296 48.125 31.7722V33ZM42.625 37.125C42.625 37.4897 42.4801 37.8394 42.2223 38.0973C41.9644 38.3552 41.6147 38.5 41.25 38.5C40.8853 38.5 40.5356 38.3552 40.2777 38.0973C40.0199 37.8394 39.875 37.4897 39.875 37.125V31.7722C39.8623 31.4296 39.9683 31.0931 40.175 30.8195C40.3816 30.546 40.6764 30.3521 41.0094 30.2707C41.2073 30.2355 41.4105 30.2441 41.6047 30.296C41.7989 30.3478 41.9793 30.4416 42.1333 30.5707C42.2874 30.6998 42.4112 30.8612 42.4962 31.0433C42.5811 31.2255 42.6251 31.424 42.625 31.625V37.125ZM37.125 37.125V39.7279C37.1377 40.0705 37.0317 40.407 36.8251 40.6806C36.6184 40.9541 36.3237 41.148 35.9906 41.2294C35.7927 41.2646 35.5896 41.2559 35.3954 41.2041C35.2012 41.1523 35.0207 41.0585 34.8667 40.9294C34.7126 40.8002 34.5888 40.6389 34.5038 40.4568C34.4189 40.2746 34.3749 40.076 34.375 39.875V34.5222C34.3623 34.1796 34.4683 33.8431 34.675 33.5695C34.8816 33.296 35.1764 33.1021 35.5094 33.0207C35.7073 32.9855 35.9105 32.9941 36.1047 33.046C36.2989 33.0978 36.4793 33.1916 36.6333 33.3207C36.7874 33.4498 36.9112 33.6112 36.9962 33.7933C37.0811 33.9755 37.1251 34.174 37.125 34.375V37.125ZM31.625 44.0578C31.4373 44.0218 31.2468 44.0024 31.0558 44H28.875V40.0222C28.8623 39.6796 28.9683 39.3431 29.175 39.0695C29.3816 38.796 29.6764 38.6021 30.0094 38.5207C30.2073 38.4855 30.4105 38.4941 30.6047 38.546C30.7989 38.5978 30.9793 38.6916 31.1334 38.8207C31.2874 38.9498 31.4112 39.1112 31.4962 39.2933C31.5811 39.4755 31.6251 39.674 31.625 39.875V44.0578ZM26.125 44H24.75C24.2882 43.9996 23.8276 44.0456 23.375 44.1375V41.3972C23.3623 41.0546 23.4683 40.7181 23.675 40.4445C23.8816 40.171 24.1764 39.9771 24.5094 39.8957C24.7073 39.8605 24.9105 39.8691 25.1047 39.921C25.2989 39.9728 25.4793 40.0666 25.6334 40.1957C25.7874 40.3248 25.9112 40.4862 25.9962 40.6683C26.0811 40.8505 26.1251 41.049 26.125 41.25V44ZM24.75 46.75H31.0558C31.1685 46.7499 31.2786 46.7832 31.3724 46.8457C31.4661 46.9083 31.5392 46.9972 31.5823 47.1013C31.6255 47.2055 31.6368 47.32 31.6147 47.4305C31.5927 47.541 31.5384 47.6425 31.4586 47.7222C30.8965 48.2876 30.2277 48.7359 29.4911 49.0411C28.7544 49.3462 27.9646 49.5022 27.1673 49.5H26.125C25.8125 49.4965 25.508 49.5996 25.2619 49.7923C25.0158 49.985 24.8427 50.2558 24.7711 50.5601C24.6995 50.8643 24.7337 51.1839 24.8681 51.4661C25.0025 51.7483 25.229 51.9763 25.5104 52.1125C26.9371 52.8195 28.1372 53.912 28.9749 55.2661C29.8126 56.6202 30.2543 58.1818 30.25 59.774V60.5H33V59.774C33.01 56.8149 31.8546 53.9707 29.7839 51.8568C30.675 51.5753 31.5152 51.1529 32.2726 50.6055C32.4991 51.3818 32.7907 52.1375 33.1444 52.8647C33.951 54.4831 34.3722 56.2662 34.375 58.0745V74.8729C31.4036 73.3757 28.6319 71.5113 26.125 69.3234V63.25C26.1252 62.9377 26.019 62.6346 25.8239 62.3907L23.7614 59.8098C21.7355 57.2719 20.6299 54.1223 20.625 50.875C20.625 49.781 21.0596 48.7318 21.8332 47.9582C22.6068 47.1846 23.656 46.75 24.75 46.75ZM44 78.2458C41.6484 77.7485 39.3472 77.0374 37.125 76.1214V58.0745C37.1241 55.8402 36.6065 53.6364 35.6125 51.6354C34.8036 50.0175 34.38 48.2344 34.375 46.4255V43.7608C34.8166 43.9175 35.2815 43.9984 35.75 44C35.9771 43.9994 36.2037 43.981 36.4279 43.945C37.1993 43.8031 37.9151 43.4465 38.4932 42.9164C39.0713 42.3862 39.4882 41.7038 39.6963 40.9475C40.2428 41.1718 40.8319 41.2735 41.422 41.2455C42.0121 41.2174 42.5889 41.0603 43.1118 40.7853C43.2458 41.0142 43.4069 41.2261 43.5916 41.4164C44.6014 42.4306 45.8438 43.1825 47.2106 43.6068C45.1419 45.7216 43.9886 48.5657 44 51.524V52.25H46.75V51.524C46.7457 49.9318 47.1874 48.3702 48.0251 47.0161C48.8628 45.662 50.063 44.5695 51.4896 43.8625C51.771 43.7263 51.9975 43.4983 52.1319 43.2161C52.2663 42.9339 52.3005 42.6143 52.2289 42.3101C52.1573 42.0058 51.9842 41.735 51.7381 41.5423C51.492 41.3496 51.1876 41.2465 50.875 41.25H49.8328C49.0354 41.2522 48.2456 41.0962 47.5089 40.7911C46.7723 40.4859 46.1036 40.0376 45.5414 39.4722C45.4616 39.3925 45.4073 39.2911 45.3853 39.1805C45.3633 39.07 45.3745 38.9555 45.4177 38.8513C45.4608 38.7472 45.5339 38.6583 45.6276 38.5957C45.7214 38.5332 45.8316 38.4999 45.9443 38.5H52.25C53.344 38.5 54.3932 38.9346 55.1668 39.7082C55.9404 40.4818 56.375 41.531 56.375 42.625C56.3717 45.8732 55.2664 49.024 53.24 51.5625L51.1775 54.1434C50.9825 54.3864 50.8759 54.6885 50.875 55V76.1214C48.6528 77.0374 46.3516 77.7485 44 78.2458ZM53.625 74.8729V55.4854L55.3864 53.2854C56.5976 51.7693 57.5411 50.0576 58.1763 48.224C58.4607 48.3382 58.7037 48.5361 58.8731 48.7915C59.0425 49.0468 59.1304 49.3476 59.125 49.654V53.625H56.9443C56.2878 53.625 55.646 53.8197 55.1001 54.1844C54.5542 54.5491 54.1288 55.0675 53.8776 55.674C53.6263 56.2806 53.5606 56.948 53.6887 57.5919C53.8168 58.2358 54.1329 58.8272 54.5971 59.2914C55.6069 60.3056 56.8493 61.0575 58.2161 61.4818C56.1454 63.5957 54.99 66.4399 55 69.399V70.125H57.75V69.399C57.7457 67.8068 58.1874 66.2452 59.0251 64.8911C59.8628 63.537 61.063 62.4445 62.4896 61.7375C62.771 61.6013 62.9975 61.3733 63.1319 61.0911C63.2663 60.8089 63.3005 60.4893 63.2289 60.1851C63.1573 59.8808 62.9842 59.61 62.7381 59.4173C62.492 59.2246 62.1876 59.1215 61.875 59.125H60.8328C60.0354 59.1272 59.2456 58.9712 58.5089 58.6661C57.7723 58.3609 57.1036 57.9126 56.5414 57.3472C56.4616 57.2675 56.4073 57.166 56.3853 57.0555C56.3633 56.945 56.3745 56.8305 56.4177 56.7263C56.4608 56.6222 56.5339 56.5333 56.6276 56.4707C56.7214 56.4082 56.8316 56.3749 56.9443 56.375H63.25C64.344 56.375 65.3932 56.8096 66.1668 57.5832C66.9404 58.3568 67.375 59.406 67.375 60.5C67.3682 61.7047 67.2088 62.9036 66.9006 64.0682C63.3073 68.5859 58.7783 72.2719 53.625 74.8729ZM64.625 53.7625C64.1725 53.6706 63.7118 53.6246 63.25 53.625H61.875V50.875C61.8749 50.674 61.9189 50.4755 62.0038 50.2933C62.0888 50.1112 62.2126 49.9498 62.3667 49.8207C62.5207 49.6916 62.7012 49.5978 62.8954 49.546C63.0896 49.4941 63.2927 49.4855 63.4906 49.5207C63.8237 49.6021 64.1184 49.796 64.3251 50.0695C64.5317 50.3431 64.6377 50.6795 64.625 51.0222V53.7625ZM75.625 39.2645C75.6161 46.3976 73.6817 53.396 70.026 59.521C69.7689 57.7347 68.816 56.1224 67.375 55.0358V51.0222C67.3875 50.0277 67.0501 49.0605 66.4217 48.2896C65.7934 47.5188 64.9141 46.9933 63.9375 46.805C62.9949 46.6509 62.028 46.8251 61.1985 47.2987C60.6625 46.4518 59.8349 45.8306 58.872 45.5524C59.0404 44.5857 59.125 43.6063 59.125 42.625C59.1219 41.5633 58.8718 40.5169 58.3945 39.5685C57.9173 38.6202 57.2258 37.7958 56.375 37.1608V33.1472C56.3875 32.1527 56.0501 31.1855 55.4217 30.4146C54.7934 29.6438 53.9141 29.1183 52.9375 28.93C51.9949 28.7752 51.0277 28.9495 50.1985 29.4237C49.8964 28.9348 49.4942 28.5155 49.0183 28.1935C48.5424 27.8714 48.0036 27.6538 47.4375 27.555C46.8448 27.4567 46.2377 27.4887 45.6585 27.6487C45.0794 27.8088 44.5421 28.0931 44.0839 28.4818C44.0564 28.5038 44.0303 28.5272 44.0041 28.5505C43.978 28.5272 43.9519 28.5038 43.9244 28.4818C43.3977 28.0303 42.7649 27.7201 42.0853 27.5803C41.4058 27.4406 40.7019 27.4759 40.0398 27.6829C39.3777 27.89 38.7791 28.262 38.3002 28.764C37.8214 29.2659 37.478 29.8814 37.3024 30.5525C36.595 30.2681 35.8233 30.1825 35.0708 30.305C34.0927 30.4916 33.2115 31.0163 32.5815 31.7874C31.9515 32.5584 31.6129 33.5265 31.625 34.5222V36.0085C30.9656 35.7682 30.2562 35.6982 29.5625 35.805C28.9983 35.9054 28.4616 36.1239 27.9877 36.4461C27.5137 36.7684 27.1133 37.1872 26.8125 37.675C25.98 37.1987 25.0088 37.0239 24.0625 37.18C23.086 37.3683 22.2067 37.8938 21.5783 38.6646C20.9499 39.4355 20.6125 40.4027 20.625 41.3972V45.4108C19.7742 46.0458 19.0828 46.8702 18.6055 47.8185C18.1282 48.7669 17.8781 49.8133 17.875 50.875C17.8797 54.7467 19.1972 58.5024 21.6123 61.5285L23.375 63.7327V66.6875C16.3288 59.295 12.391 49.4786 12.375 39.2659V27.0367C24.1618 25.6809 35.2245 20.6555 44 12.6707C52.7755 20.6555 63.8382 25.6809 75.625 27.0367V39.2645Z" fill="url(#paint1_linear_774_4583)"/>
<defs>
<linearGradient id="paint0_linear_774_4583" x1="18.4575" y1="34.6883" x2="75.6137" y2="52.1498" gradientUnits="userSpaceOnUse">
<stop stop-color="#115846"/>
<stop offset="1" stop-color="#CC903F"/>
</linearGradient>
<linearGradient id="paint1_linear_774_4583" x1="21.9806" y1="37.3866" x2="71.0328" y2="52.7615" gradientUnits="userSpaceOnUse">
<stop stop-color="#115846"/>
<stop offset="1" stop-color="#CC903F"/>
</linearGradient>
</defs>
</svg>
