<svg width="66" height="86" viewBox="0 0 66 86" fill="none" xmlns="http://www.w3.org/2000/svg">
<path d="M29.1077 85.3078H54.3231C58.7231 85.3078 62.2769 81.7539 62.2769 77.3539V59.9231C64.4769 53.8308 66 51.9693 66 48.077V28.277C66 28.1078 66 12.877 66 13.3847C66 9.66161 62.9538 6.44623 59.0615 6.44623H56.3538C54.6615 6.44623 53.1385 7.12315 51.7846 8.13854C50.6 5.76931 47.8923 4.077 44.8462 4.077C42.8154 4.077 40.9538 4.92315 39.6 6.10777C38.2462 2.89238 35.3692 0.692383 31.8154 0.692383C28.6 0.692383 25.8923 2.55392 24.5385 5.26161C23.0154 3.90777 20.9846 2.89238 18.7846 2.89238C14.2154 2.89238 10.6615 6.61546 10.6615 11.0155V11.8616H9.13846C4.06154 12.0308 0 15.9232 0 21.0001V38.6001C0 44.5231 2.87692 50.1078 7.78462 53.4924C11.6769 57.0462 21.1538 59.7539 21.1538 70.077V77.5231C21.1538 81.7539 24.7077 85.3078 29.1077 85.3078ZM56.5231 10.0001H59.2308C61.0923 10.0001 62.7846 11.5232 62.7846 13.5539C62.7846 13.7232 62.7846 29.1231 62.7846 28.4462C62.7846 30.3078 61.2615 32.0001 59.2308 32.0001H56.5231C54.6615 32.0001 53.1385 30.477 53.1385 28.6155V13.3847C52.9692 11.5232 54.4923 10.0001 56.5231 10.0001ZM44.8462 7.46161C47.5538 7.46161 49.5846 9.66161 49.5846 12.2001V13.3847C49.5846 13.5539 49.5846 30.1385 49.5846 29.4616C49.5846 32.1693 47.3846 34.2001 44.8462 34.2001C42.3077 34.2001 40.1077 32.0001 40.1077 29.4616V24.8924C40.7846 23.7078 41.1231 22.1847 41.1231 20.8308C41.1231 19.477 40.7846 18.1232 40.1077 16.7693V12.2001C39.9385 9.66161 42.1385 7.46161 44.8462 7.46161ZM23.6923 30.1385C23.6923 32.8462 21.4923 34.877 18.9538 34.877C16.2462 34.877 14.2154 32.677 14.2154 30.1385V29.9693H23.8615V30.1385H23.6923ZM27.0769 30.1385V29.9693H31.9846C32.3231 29.9693 32.8308 29.9693 33.1692 29.9693C34.3538 29.8001 35.5385 29.2924 36.5538 28.7847V29.8001V32.5078C36.5538 35.2155 34.3538 37.2462 31.8154 37.2462C29.1077 37.2462 27.0769 35.0462 27.0769 32.5078V30.1385ZM27.0769 8.81546C27.0769 6.10777 29.2769 4.077 31.8154 4.077C34.5231 4.077 36.5538 6.277 36.5538 8.81546C36.5538 9.49238 36.5538 13.3847 36.5538 13.2155C35.2 12.3693 33.5077 11.8616 31.9846 11.8616H27.0769C27.0769 11.6924 27.0769 8.64623 27.0769 8.81546ZM14.0462 11.0155C14.0462 8.30777 16.2462 6.277 18.7846 6.277C21.3231 6.277 23.5231 8.477 23.5231 11.0155V11.8616H13.8769V11.0155H14.0462ZM9.64615 50.6155C5.75385 47.9078 3.38462 43.3385 3.38462 38.6001V21.0001C3.38462 17.9539 5.92308 15.4155 8.96923 15.4155H31.9846C35.2 15.4155 37.5692 18.1232 37.5692 21.0001C37.5692 23.877 35.2 26.5847 31.9846 26.5847C14.5538 26.5847 23.1846 26.5847 12.3538 26.5847C11.3385 26.5847 10.6615 27.2616 10.6615 28.277V30.1385C10.6615 34.7078 14.3846 38.2616 18.7846 38.2616C20.9846 38.2616 23.0154 37.4155 24.5385 35.8924C25.8923 38.6001 28.6 40.4616 31.8154 40.4616C35.0308 40.4616 37.9077 38.6001 39.2615 35.5539C40.7846 36.9078 42.6462 37.7539 44.6769 37.7539C47.7231 37.7539 50.4308 36.0616 51.7846 33.5231C52.9692 34.5385 54.4923 35.2155 56.3538 35.2155H59.0615C60.4154 35.2155 61.4308 34.877 62.6154 34.2001V48.077C62.6154 50.9539 61.4308 52.3078 58.8923 58.9078C58.8923 59.077 58.7231 59.2462 58.7231 59.5847V77.3539C58.7231 79.8924 56.6923 81.9231 54.1538 81.9231H29.1077C26.5692 81.9231 24.5385 79.8924 24.5385 77.3539V69.9078C24.5385 57.5539 13.2 53.6616 9.64615 50.6155Z" fill="url(#paint0_linear_774_4587)"/>
<defs>
<linearGradient id="paint0_linear_774_4587" x1="11.8614" y1="33.7429" x2="60.4283" y2="46.1107" gradientUnits="userSpaceOnUse">
<stop stop-color="#115846"/>
<stop offset="1" stop-color="#CC903F"/>
</linearGradient>
</defs>
</svg>
