<svg width="88" height="88" viewBox="0 0 88 88" fill="none" xmlns="http://www.w3.org/2000/svg">
<path d="M44 0C19.7102 0 0 19.7102 0 44C0 68.2898 19.7102 88 44 88C68.2898 88 88 68.2898 88 44C88 19.7102 68.2898 0 44 0ZM44 1.83333C67.298 1.83333 86.1667 20.7002 86.1667 44C86.1667 67.2998 67.298 86.1667 44 86.1667C20.702 86.1667 1.83333 67.2998 1.83333 44C1.83333 20.7002 20.702 1.83333 44 1.83333ZM43.9322 16.4963C43.8008 16.5058 43.6731 16.5435 43.5576 16.6067C43.4422 16.67 43.3417 16.7574 43.263 16.863L40.513 20.5297C40.3947 20.6873 40.3305 20.8789 40.3297 21.076V22.143C38.3412 22.8517 36.5732 24.0692 35.2018 25.674H28.5817C28.4762 25.6554 28.3682 25.6554 28.2627 25.674H28.2058V25.696C28.0019 25.7433 27.8204 25.8589 27.6913 26.0237C27.5622 26.1884 27.4934 26.3924 27.4963 26.6017C27.4974 27.0848 27.3711 27.5597 27.13 27.9784C26.8889 28.3971 26.5416 28.7448 26.1231 28.9864C25.7047 29.2279 25.23 29.3549 24.7468 29.3543C24.2637 29.3537 23.7892 29.2257 23.3713 28.9832C22.9528 28.7419 22.6052 28.3946 22.3638 27.9761C22.1224 27.5577 21.9957 27.0829 21.9963 26.5998C21.9981 26.4771 21.9751 26.3553 21.9289 26.2417C21.8827 26.128 21.8142 26.0247 21.7273 25.9381C21.6404 25.8514 21.5371 25.783 21.4233 25.737C21.3095 25.691 21.1877 25.6684 21.065 25.6703C20.9446 25.6722 20.8258 25.6979 20.7153 25.7457C20.6048 25.7935 20.5048 25.8627 20.4211 25.9492C20.3373 26.0356 20.2714 26.1378 20.2271 26.2497C20.1829 26.3617 20.1611 26.4813 20.163 26.6017C20.163 28.0922 20.9147 29.4543 22.1173 30.3068L16.555 46.2055C16.4965 46.3572 16.4794 46.5217 16.5055 46.6822C16.5017 46.7108 16.4993 46.7395 16.4982 46.7683C16.4982 48.9564 17.3674 51.0548 18.9145 52.602C20.4617 54.1491 22.5601 55.0183 24.7482 55.0183C26.9362 55.0183 29.0346 54.1491 30.5818 52.602C32.129 51.0548 32.9982 48.9564 32.9982 46.7683C32.9978 46.7457 32.9966 46.7231 32.9945 46.7005C33.0251 46.5344 33.0092 46.3631 32.9487 46.2055L27.3845 30.3032C28.3287 29.6303 28.9777 28.644 29.2105 27.5165H40.3315V30.2537C40.3315 30.4968 40.4281 30.7299 40.6 30.9018C40.7719 31.0738 41.0051 31.1703 41.2482 31.1703H41.2555V62.5662C38.3918 63.0263 35.9113 64.2125 34.3952 66.0073H30.2482C30.0051 66.0073 29.7719 66.1039 29.6 66.2758C29.4281 66.4477 29.3315 66.6809 29.3315 66.924V70.5907C29.3315 70.8338 29.4281 71.0669 29.6 71.2388C29.7719 71.4108 30.0051 71.5073 30.2482 71.5073H57.7592C57.8795 71.5073 57.9987 71.4836 58.11 71.4376C58.2212 71.3915 58.3222 71.324 58.4073 71.2388C58.4925 71.1537 58.56 71.0527 58.6061 70.9415C58.6521 70.8302 58.6758 70.7111 58.6758 70.5907V66.924C58.6758 66.6809 58.5793 66.4477 58.4073 66.2758C58.2354 66.1039 58.0023 66.0073 57.7592 66.0073H53.6232C52.0978 64.2033 49.6082 63.0153 46.7555 62.5552V31.1703C46.9973 31.1684 47.2286 31.071 47.3989 30.8993C47.5693 30.7276 47.6648 30.4955 47.6648 30.2537V27.5183H58.7858C59.0205 28.6458 59.6695 29.6377 60.6155 30.3105L55.055 46.2055C54.9965 46.3572 54.9794 46.5217 55.0055 46.6822C55.0017 46.7108 54.9993 46.7395 54.9982 46.7683C54.9982 48.9564 55.8674 51.0548 57.4145 52.602C58.9617 54.1491 61.0601 55.0183 63.2482 55.0183C65.4362 55.0183 67.5346 54.1491 69.0818 52.602C70.629 51.0548 71.4982 48.9564 71.4982 46.7683C71.4978 46.7457 71.4966 46.7231 71.4945 46.7005C71.5251 46.5344 71.5092 46.3631 71.4487 46.2055L65.8845 30.3068C66.4811 29.8894 66.9692 29.3352 67.3079 28.6907C67.6466 28.0461 67.8261 27.3298 67.8315 26.6017C67.8334 26.4813 67.8117 26.3617 67.7674 26.2497C67.7231 26.1378 67.6572 26.0356 67.5734 25.9492C67.4897 25.8627 67.3897 25.7935 67.2792 25.7457C67.1687 25.6979 67.0499 25.6722 66.9295 25.6703C66.8066 25.6684 66.6847 25.6911 66.5708 25.7372C66.4569 25.7833 66.3534 25.8518 66.2665 25.9387C66.1797 26.0256 66.1111 26.129 66.065 26.2429C66.0189 26.3568 65.9962 26.4788 65.9982 26.6017C65.9993 27.0848 65.8729 27.5597 65.6318 27.9784C65.3907 28.3971 65.0434 28.7448 64.625 28.9864C64.2066 29.2279 63.7318 29.3549 63.2486 29.3543C62.7655 29.3537 62.291 29.2257 61.8732 28.9832C61.4546 28.7419 61.1071 28.3946 60.8657 27.9761C60.6242 27.5577 60.4975 27.0829 60.4982 26.5998C60.5008 26.3914 60.4324 26.1882 60.304 26.0239C60.1757 25.8596 59.9952 25.7439 59.7923 25.696V25.6777H59.7318C59.6263 25.659 59.5184 25.659 59.4128 25.6777H52.7707C51.3955 24.0993 49.6371 22.9015 47.6648 22.1998V21.0797C47.6644 20.882 47.6001 20.6897 47.4815 20.5315L44.7315 16.8648C44.6489 16.7541 44.5424 16.6634 44.4199 16.5996C44.2973 16.5357 44.1619 16.5005 44.0238 16.4963C43.9933 16.4948 43.9627 16.4948 43.9322 16.4963ZM43.9963 18.942L45.8297 21.3913V29.3297H42.163V21.3913L43.9963 18.942ZM40.3297 24.1267V25.6777H37.8052C38.5678 25.036 39.4167 24.5227 40.3297 24.1267ZM47.663 24.167C48.5595 24.552 49.39 25.058 50.1453 25.6777H47.663V24.167ZM24.7463 25.674C24.5032 25.674 24.2701 25.7706 24.0982 25.9425C23.9262 26.1144 23.8297 26.3476 23.8297 26.5907C23.8297 26.8338 23.9262 27.0669 24.0982 27.2388C24.2701 27.4108 24.5032 27.5073 24.7463 27.5073C24.9894 27.5073 25.2226 27.4108 25.3945 27.2388C25.5664 27.0669 25.663 26.8338 25.663 26.5907C25.663 26.3476 25.5664 26.1144 25.3945 25.9425C25.2226 25.7706 24.9894 25.674 24.7463 25.674ZM63.2463 25.674C63.0032 25.674 62.7701 25.7706 62.5982 25.9425C62.4262 26.1144 62.3297 26.3476 62.3297 26.5907C62.3297 26.8338 62.4262 27.0669 62.5982 27.2388C62.7701 27.4108 63.0032 27.5073 63.2463 27.5073C63.4895 27.5073 63.7226 27.4108 63.8945 27.2388C64.0664 27.0669 64.163 26.8338 64.163 26.5907C64.163 26.3476 64.0664 26.1144 63.8945 25.9425C63.7226 25.7706 63.4895 25.674 63.2463 25.674ZM23.7967 31.0457C24.4273 31.1795 25.0727 31.1795 25.7033 31.0457L30.8807 45.8407H18.6193L23.7967 31.0457ZM62.2967 31.0457C62.9273 31.1795 63.5763 31.1813 64.2052 31.0457L69.3807 45.837H57.1193L62.2967 31.0457ZM43.087 31.1593H44.9203V62.3297H43.087V31.1593ZM18.5753 47.674H30.9155C30.624 49.5825 29.6578 51.3315 27.9547 52.3142C26.9793 52.8777 25.8728 53.1744 24.7463 53.1744C23.6199 53.1744 22.5133 52.8777 21.538 52.3142C19.8348 51.3315 18.8687 49.5825 18.5772 47.674H18.5753ZM57.0753 47.674H69.4155C69.124 49.5825 68.1578 51.3315 66.4547 52.3142C65.4793 52.8777 64.3728 53.1744 63.2463 53.1744C62.1199 53.1744 61.0133 52.8777 60.038 52.3142C58.3348 51.3315 57.3668 49.5825 57.0753 47.674ZM43.8277 64.163C46.5667 64.1337 49.126 64.8652 50.8567 65.9963H37.1635C38.819 64.9202 41.2115 64.1923 43.8277 64.163ZM31.163 67.8297H56.8407V69.663H31.163V67.8297Z" fill="url(#paint0_linear_774_4593)"/>
<defs>
<linearGradient id="paint0_linear_774_4593" x1="15.8152" y1="34.3725" x2="78.1285" y2="54.7166" gradientUnits="userSpaceOnUse">
<stop stop-color="#115846"/>
<stop offset="1" stop-color="#CC903F"/>
</linearGradient>
</defs>
</svg>
