<svg width="60" height="60" viewBox="0 0 60 60" fill="none" xmlns="http://www.w3.org/2000/svg">
<path d="M41.1522 38.1901C44.4631 34.1821 46.5542 29.0415 46.5542 23.3782C46.5542 10.6574 36.1859 0.289062 23.4651 0.289062C10.7443 0.289062 0.375977 10.6574 0.375977 23.3782C0.375977 36.099 10.7443 46.4673 23.4651 46.4673C29.0413 46.4673 34.269 44.4633 38.277 41.0653L56.2255 59.0138C56.6611 59.4495 57.1839 59.6237 57.7067 59.6237C58.2294 59.6237 58.7522 59.4495 59.1879 59.0138C59.972 58.2297 59.972 56.8356 59.1879 56.0514L41.1522 38.1901ZM23.378 42.2851C12.9225 42.2851 4.47103 33.8336 4.47103 23.3782C4.47103 12.9227 12.9225 4.47124 23.378 4.47124C33.8334 4.47124 42.2849 12.9227 42.2849 23.3782C42.2849 33.8336 33.8334 42.2851 23.378 42.2851Z" fill="url(#paint0_linear_774_4595)"/>
<defs>
<linearGradient id="paint0_linear_774_4595" x1="11.0512" y1="23.465" x2="53.1038" y2="37.2095" gradientUnits="userSpaceOnUse">
<stop stop-color="#115846"/>
<stop offset="1" stop-color="#CC903F"/>
</linearGradient>
</defs>
</svg>
