<svg width="76" height="70" viewBox="0 0 76 70" fill="none" xmlns="http://www.w3.org/2000/svg">
<path d="M48.2273 25.5713C50.1027 25.5713 51.9014 26.3163 53.2275 27.6425C54.5537 28.9686 55.2987 30.7673 55.2987 32.6428V52.2825C55.2987 56.8678 53.4772 61.2652 50.2349 64.5075C46.9926 67.7498 42.5951 69.5713 38.0098 69.5713C33.4246 69.5713 29.0271 67.7498 25.7848 64.5075C22.5425 61.2652 20.721 56.8678 20.721 52.2825V32.6428C20.721 30.7673 21.466 28.9686 22.7922 27.6425C24.1183 26.3163 25.917 25.5713 27.7924 25.5713H48.2273ZM48.2273 30.2856H27.7924C27.1673 30.2856 26.5677 30.534 26.1257 30.976C25.6836 31.4181 25.4353 32.0176 25.4353 32.6428V52.2825C25.4353 55.6175 26.7601 58.8158 29.1183 61.174C31.4765 63.5322 34.6749 64.857 38.0098 64.857C41.3448 64.857 44.5432 63.5322 46.9014 61.174C49.2596 58.8158 50.5844 55.6175 50.5844 52.2825V32.6428C50.5844 32.0176 50.3361 31.4181 49.894 30.976C49.452 30.534 48.8524 30.2856 48.2273 30.2856ZM7.35757 25.5713H20.4193C19.1571 26.8848 18.2704 28.5128 17.8516 30.2856H7.35757C6.73241 30.2856 6.13286 30.534 5.69081 30.976C5.24876 31.4181 5.00042 32.0176 5.00042 32.6428V49.1396C4.99919 50.7169 5.39364 52.2692 6.14767 53.6545C6.9017 55.0398 7.99121 56.2139 9.31644 57.0691C10.6417 57.9244 12.1603 58.4335 13.7332 58.5499C15.3062 58.6663 16.8832 58.3862 18.3199 57.7353C18.7379 59.2753 19.3381 60.7399 20.0924 62.1102C17.9392 63.0512 15.5855 63.4408 13.2439 63.2439C10.9023 63.047 8.64666 62.2697 6.68082 60.9824C4.71499 59.695 3.10091 57.9381 1.98444 55.8704C0.867962 53.8027 0.28428 51.4895 0.286137 49.1396V32.6428C0.286137 30.7673 1.03116 28.9686 2.35731 27.6425C3.68346 26.3163 5.48211 25.5713 7.35757 25.5713ZM68.6433 25.5713C70.5187 25.5713 72.3174 26.3163 73.6435 27.6425C74.9697 28.9686 75.7147 30.7673 75.7147 32.6428V49.1428C75.7157 51.491 75.1319 53.8025 74.0161 55.8687C72.9003 57.9349 71.2876 59.6907 69.3235 60.9778C67.3594 62.2648 65.1057 63.0426 62.7659 63.2408C60.426 63.4391 58.0736 63.0516 55.921 62.1133L56.097 61.7928C56.7696 60.5168 57.3133 59.1622 57.703 57.7416C59.1389 58.3877 60.7139 58.6639 62.284 58.545C63.8541 58.4261 65.3694 57.9158 66.6917 57.0608C68.0139 56.2057 69.101 55.0331 69.8536 53.6501C70.6063 52.267 71.0005 50.7174 71.0004 49.1428V32.6428C71.0004 32.0181 70.7525 31.4191 70.3111 30.9771C69.8698 30.5352 69.271 30.2864 68.6464 30.2856H58.1713C57.7516 28.5125 56.8637 26.8844 55.6004 25.5713H68.6433ZM38.0004 0.428467C39.445 0.428467 40.8754 0.71299 42.2099 1.26579C43.5445 1.81859 44.7572 2.62885 45.7786 3.65029C46.8 4.67174 47.6103 5.88437 48.1631 7.21895C48.7159 8.55353 49.0004 9.98393 49.0004 11.4285C49.0004 12.873 48.7159 14.3034 48.1631 15.638C47.6103 16.9726 46.8 18.1852 45.7786 19.2066C44.7572 20.2281 43.5445 21.0383 42.2099 21.5911C40.8754 22.1439 39.445 22.4285 38.0004 22.4285C35.083 22.4285 32.2851 21.2695 30.2222 19.2066C28.1593 17.1437 27.0004 14.3458 27.0004 11.4285C27.0004 8.51109 28.1593 5.71319 30.2222 3.65029C32.2851 1.58739 35.083 0.428467 38.0004 0.428467ZM63.1527 3.57132C64.3909 3.57132 65.6169 3.8152 66.7609 4.28903C67.9048 4.76286 68.9442 5.45737 69.8197 6.33289C70.6952 7.20841 71.3897 8.24781 71.8636 9.39174C72.3374 10.5357 72.5813 11.7617 72.5813 12.9999C72.5813 14.2381 72.3374 15.4641 71.8636 16.6081C71.3897 17.752 70.6952 18.7914 69.8197 19.6669C68.9442 20.5424 67.9048 21.2369 66.7609 21.7108C65.6169 22.1846 64.3909 22.4285 63.1527 22.4285C60.6521 22.4285 58.2539 21.4351 56.4857 19.6669C54.7175 17.8987 53.7241 15.5005 53.7241 12.9999C53.7241 10.4993 54.7175 8.10109 56.4857 6.33289C58.2539 4.56469 60.6521 3.57132 63.1527 3.57132ZM12.8481 3.57132C14.0863 3.57132 15.3124 3.8152 16.4563 4.28903C17.6002 4.76286 18.6396 5.45737 19.5151 6.33289C20.3907 7.20841 21.0852 8.24781 21.559 9.39174C22.0328 10.5357 22.2767 11.7617 22.2767 12.9999C22.2767 14.2381 22.0328 15.4641 21.559 16.6081C21.0852 17.752 20.3907 18.7914 19.5151 19.6669C18.6396 20.5424 17.6002 21.2369 16.4563 21.7108C15.3124 22.1846 14.0863 22.4285 12.8481 22.4285C10.3475 22.4285 7.94933 21.4351 6.18113 19.6669C4.41293 17.8987 3.41957 15.5005 3.41957 12.9999C3.41957 10.4993 4.41293 8.10109 6.18113 6.33289C7.94933 4.56469 10.3475 3.57132 12.8481 3.57132ZM38.0004 5.14275C36.3333 5.14275 34.7346 5.805 33.5558 6.9838C32.3769 8.1626 31.7147 9.76139 31.7147 11.4285C31.7147 13.0955 32.3769 14.6943 33.5558 15.8731C34.7346 17.0519 36.3333 17.7142 38.0004 17.7142C39.6675 17.7142 41.2663 17.0519 42.4451 15.8731C43.6239 14.6943 44.2861 13.0955 44.2861 11.4285C44.2861 9.76139 43.6239 8.1626 42.4451 6.9838C41.2663 5.805 39.6675 5.14275 38.0004 5.14275ZM63.1527 8.28561C62.5336 8.28561 61.9206 8.40755 61.3486 8.64446C60.7767 8.88138 60.257 9.22863 59.8192 9.66639C59.3814 10.1042 59.0342 10.6239 58.7973 11.1958C58.5604 11.7678 58.4384 12.3808 58.4384 12.9999C58.4384 13.619 58.5604 14.232 58.7973 14.804C59.0342 15.3759 59.3814 15.8956 59.8192 16.3334C60.257 16.7712 60.7767 17.1184 61.3486 17.3553C61.9206 17.5922 62.5336 17.7142 63.1527 17.7142C64.403 17.7142 65.6021 17.2175 66.4862 16.3334C67.3703 15.4493 67.867 14.2502 67.867 12.9999C67.867 11.7496 67.3703 10.5505 66.4862 9.66639C65.6021 8.78229 64.403 8.28561 63.1527 8.28561ZM12.8481 8.28561C12.229 8.28561 11.616 8.40755 11.0441 8.64446C10.4721 8.88138 9.9524 9.22863 9.51463 9.66639C9.07687 10.1042 8.72962 10.6239 8.49271 11.1958C8.25579 11.7678 8.13385 12.3808 8.13385 12.9999C8.13385 13.619 8.25579 14.232 8.49271 14.804C8.72962 15.3759 9.07687 15.8956 9.51463 16.3334C9.9524 16.7712 10.4721 17.1184 11.0441 17.3553C11.616 17.5922 12.229 17.7142 12.8481 17.7142C14.0984 17.7142 15.2975 17.2175 16.1816 16.3334C17.0657 15.4493 17.5624 14.2502 17.5624 12.9999C17.5624 11.7496 17.0657 10.5505 16.1816 9.66639C15.2975 8.78229 14.0984 8.28561 12.8481 8.28561Z" fill="url(#paint0_linear_774_4589)"/>
<defs>
<linearGradient id="paint0_linear_774_4589" x1="13.842" y1="27.4354" x2="66.293" y2="46.1165" gradientUnits="userSpaceOnUse">
<stop stop-color="#115846"/>
<stop offset="1" stop-color="#CC903F"/>
</linearGradient>
</defs>
</svg>
