<svg width="68" height="37" viewBox="0 0 68 37" fill="none" xmlns="http://www.w3.org/2000/svg">
<path fill-rule="evenodd" clip-rule="evenodd" d="M45.8167 14.9499L51.4156 20.5489C51.9107 21.0439 52.5817 21.3189 53.2747 21.3189C53.9787 21.3189 54.6497 21.0439 55.1447 20.5489L66.3427 9.35088C67.3766 8.31688 67.3766 6.64488 66.3427 5.61088C65.3196 4.58788 63.6477 4.58788 62.6137 5.61088L53.2747 14.9499L49.5457 11.2099C48.5117 10.1869 46.8397 10.1869 45.8167 11.2099C44.7827 12.2439 44.7827 13.9159 45.8167 14.9499ZM0.639648 28.9199C0.639648 31.0209 1.47565 33.0339 2.96065 34.5189C4.44565 36.0039 6.45865 36.8399 8.55965 36.8399H32.4736C33.9366 36.8399 35.1136 35.6519 35.1136 34.1999C35.1136 32.7479 33.9366 31.5599 32.4736 31.5599H8.55965C7.85565 31.5599 7.18465 31.2849 6.68965 30.7899L6.67865 30.7789C6.19465 30.2839 5.91965 29.6129 5.91965 28.9199C5.91965 16.8749 14.8626 6.93088 26.4786 5.36888C27.9196 5.18188 28.9316 3.85088 28.7336 2.40988C28.5466 0.957878 27.2156 -0.0541202 25.7746 0.14388C11.5847 2.04688 0.639648 14.2019 0.639648 28.9199Z" fill="url(#paint0_linear_774_4582)"/>
<defs>
<linearGradient id="paint0_linear_774_4582" x1="12.587" y1="14.4621" x2="51.1919" y2="37.2798" gradientUnits="userSpaceOnUse">
<stop stop-color="#115846"/>
<stop offset="1" stop-color="#CC903F"/>
</linearGradient>
</defs>
</svg>
