<svg width="88" height="88" viewBox="0 0 88 88" fill="none" xmlns="http://www.w3.org/2000/svg">
<path d="M43.464 31.7852C43.6322 31.8621 43.8149 31.9019 43.9999 31.9019C44.1848 31.9019 44.3675 31.8621 44.5357 31.7852C46.8194 30.7484 48.8491 29.2255 50.4831 27.3228C52.8488 24.5395 54.0993 21.202 54.0993 17.6712V11.9529C54.0993 11.6242 53.9737 11.3079 53.7482 11.0688C53.5227 10.8296 53.2143 10.6856 52.8862 10.6663C50.7269 10.551 48.6237 9.93684 46.7417 8.87188C46.068 8.48106 45.432 8.02864 44.8418 7.52042C44.6077 7.31855 44.3089 7.20749 43.9999 7.20749C43.6908 7.20749 43.392 7.31855 43.1579 7.52042C42.5679 8.02867 41.9319 8.48104 41.2582 8.8717C39.3762 9.93665 37.273 10.5509 35.1137 10.6661C34.7855 10.6855 34.4771 10.8295 34.2516 11.0687C34.0262 11.3079 33.9006 11.6242 33.9006 11.9529V17.6712C33.9006 21.2022 35.1513 24.54 37.5173 27.3232C39.1511 29.2257 41.1805 30.7485 43.464 31.7852ZM36.4787 13.1258C38.6173 12.8595 40.6817 12.1714 42.5524 11.1014C43.0526 10.8111 43.5359 10.4927 43.9999 10.1475C44.464 10.4927 44.9473 10.8111 45.4475 11.1014C47.3182 12.1714 49.3827 12.8595 51.5214 13.1258V17.6712C51.5214 20.5821 50.4831 23.3422 48.5182 25.6536C47.2609 27.1178 45.7251 28.3175 43.9999 29.1827C42.2749 28.3176 40.7392 27.1182 39.482 25.6541C37.5172 23.3425 36.4787 20.5822 36.4787 17.6712V13.1258ZM87.6225 40.3626C87.5028 40.2429 87.3607 40.1479 87.2043 40.0831C87.0478 40.0183 86.8802 39.985 86.7109 39.985C86.5416 39.985 86.3739 40.0183 86.2175 40.0831C86.0611 40.1479 85.919 40.2429 85.7992 40.3626L78.3467 47.8151L60.6701 29.7659C62.0513 27.5212 62.9614 25.0189 63.3448 22.4113L68.3687 17.3517C68.488 17.2316 68.5825 17.0891 68.6467 16.9325C68.7109 16.7759 68.7437 16.6081 68.7431 16.4388C68.7425 16.2695 68.7086 16.102 68.6433 15.9458C68.5779 15.7897 68.4825 15.6479 68.3624 15.5286C68.2422 15.4093 68.0998 15.3148 67.9432 15.2506C67.7865 15.1864 67.6188 15.1536 67.4495 15.1542C67.2802 15.1548 67.1127 15.1887 66.9565 15.2541C66.8003 15.3194 66.6586 15.4148 66.5393 15.535L63.5298 18.566C63.2744 13.528 61.0819 8.78356 57.4105 5.32417C53.7391 1.86478 48.8728 -0.0419329 43.8285 0.00246736C38.7842 0.0468676 33.9523 2.03894 30.3423 5.56243C26.7323 9.08591 24.6237 13.8682 24.4571 18.9099L20.9604 15.5181C20.7144 15.2835 20.3856 15.1555 20.0457 15.1621C19.7058 15.1687 19.3822 15.3093 19.1455 15.5533C18.9088 15.7974 18.778 16.1251 18.7818 16.465C18.7855 16.805 18.9234 17.1297 19.1654 17.3685L24.7089 22.7461C25.1276 25.2859 26.0466 27.7171 27.4126 29.8987L9.76072 47.9229L2.20046 40.3626C2.08123 40.2408 1.93904 40.1439 1.7821 40.0774C1.62516 40.0109 1.4566 39.9762 1.28616 39.9753C1.11573 39.9744 0.946804 40.0073 0.789167 40.0721C0.63153 40.1369 0.48831 40.2324 0.367792 40.3529C0.247274 40.4734 0.151853 40.6166 0.087049 40.7743C0.0222449 40.9319 -0.0106551 41.1008 -0.00974734 41.2713C-0.00883961 41.4417 0.0258578 41.6102 0.0923373 41.7672C0.158817 41.9241 0.255758 42.0663 0.377553 42.1855L8.63133 50.4395C8.74091 50.6284 8.89799 50.7855 9.08697 50.895L10.2222 52.0302C10.8191 52.6309 11.5292 53.1071 12.3115 53.4314C13.0938 53.7556 13.9327 53.9213 14.7795 53.9189C15.3792 53.919 15.9761 53.8357 16.5529 53.6714C16.5855 54.5467 16.6807 55.4185 16.8377 56.2802C16.237 56.5559 15.6904 56.9365 15.2234 57.4042L12.3935 60.2341C11.6123 61.0154 11.0803 62.0107 10.8648 63.0943C10.6493 64.1778 10.7599 65.301 11.1827 66.3217C11.6055 67.3424 12.3214 68.2148 13.24 68.8286C14.1586 69.4424 15.2386 69.7701 16.3434 69.7701C16.5173 69.7701 16.6899 69.7613 16.8607 69.7457C16.7885 70.5193 16.8785 71.2994 17.1251 72.0361C17.3717 72.7729 17.7693 73.4501 18.2926 74.0243C18.8159 74.5986 19.4532 75.0573 20.164 75.3711C20.8747 75.6849 21.6431 75.8469 22.42 75.8467C22.5931 75.8467 22.7648 75.8382 22.9349 75.8227C22.9195 75.9928 22.9109 76.1644 22.9109 76.3373C22.9106 77.0708 23.0549 77.7972 23.3356 78.4749C23.6162 79.1525 24.0277 79.7683 24.5465 80.2868C25.0653 80.8054 25.6812 81.2166 26.359 81.4969C27.0369 81.7773 27.7633 81.9212 28.4968 81.9206C28.6687 81.9206 28.8404 81.9126 29.0119 81.8966C28.9963 82.0676 28.9875 82.2403 28.9875 82.4141C28.9855 83.1479 29.1292 83.8749 29.41 84.5528C29.6909 85.2308 30.1034 85.8463 30.6238 86.3638C31.6722 87.4097 33.0926 87.9972 34.5735 87.9972C36.0544 87.9972 37.4749 87.4098 38.5233 86.364L40.3847 84.5025L42.2461 86.3643C43.0582 87.1771 44.1013 87.7196 45.2331 87.9178C46.3649 88.1159 47.5303 87.96 48.5702 87.4713C49.6102 86.9827 50.474 86.1851 51.0439 85.1874C51.6138 84.1896 51.862 83.0404 51.7546 81.8964C51.9268 81.9123 52.0995 81.9203 52.2726 81.9205C53.0061 81.921 53.7325 81.777 54.4103 81.4967C55.0881 81.2164 55.7039 80.8052 56.2227 80.2867C56.7415 79.7682 57.153 79.1525 57.4337 78.4749C57.7144 77.7972 57.8587 77.0709 57.8586 76.3374C57.8586 76.1644 57.85 75.9928 57.8345 75.8227C58.0047 75.8382 58.1762 75.8467 58.3491 75.8467C59.8306 75.8467 61.2514 75.2581 62.299 74.2105C63.3466 73.1629 63.9351 71.7421 63.9352 70.2606C63.9352 70.0876 63.9266 69.916 63.9111 69.7457C64.0813 69.7612 64.2528 69.7698 64.4259 69.7698C65.5307 69.7697 66.6106 69.4421 67.5292 68.8283C68.4477 68.2145 69.1637 67.3422 69.5865 66.3215C70.0092 65.3008 70.1199 64.1777 69.9044 63.0942C69.6889 62.0107 69.1569 61.0154 68.3758 60.2341L66.8134 58.6718C68.6297 57.2901 70.1804 55.5905 71.3904 53.6556C71.9847 53.8306 72.601 53.9193 73.2204 53.9189C74.0671 53.9213 74.9059 53.7556 75.6881 53.4315C76.4703 53.1074 77.1805 52.6313 77.7773 52.0307L87.6223 42.1857C87.742 42.066 87.837 41.9239 87.9018 41.7675C87.9666 41.6111 87.9999 41.4435 87.9999 41.2742C87.9999 41.1049 87.9666 40.9373 87.9018 40.7809C87.837 40.6245 87.7422 40.4823 87.6225 40.3626ZM27.1988 21.9902C27.1971 21.9717 27.1937 21.9533 27.1911 21.9349C26.8015 19.1984 27.086 16.4082 28.0199 13.8066C28.9537 11.2051 30.5086 8.87085 32.5495 7.00675C34.5903 5.14264 37.0555 3.80504 39.7308 3.11012C42.4061 2.41521 45.2106 2.384 47.9007 3.01921C50.5908 3.65443 53.0851 4.93685 55.167 6.75508C57.2489 8.57331 58.8553 10.8723 59.8468 13.4525C60.8383 16.0326 61.1848 18.8158 60.8562 21.5603C60.5277 24.3048 59.534 26.9275 57.9615 29.2007L57.9529 29.2129C56.0136 32.0172 53.2746 34.1724 50.0928 35.3975C46.9109 36.6227 43.4339 36.861 40.1146 36.0815C36.7954 35.3019 33.7879 33.5407 31.4841 31.0272C29.1803 28.5138 27.687 25.3646 27.1988 21.9902ZM14.7795 51.3408C14.2714 51.3422 13.7682 51.2427 13.2989 51.0482C12.8295 50.8536 12.4035 50.5679 12.0455 50.2075L11.584 49.746L28.9444 32.0193C29.9655 33.2501 31.1325 34.3522 32.4197 35.3013L17.5121 50.2088C17.1541 50.5689 16.7283 50.8543 16.2592 51.0486C15.7901 51.2429 15.2872 51.3422 14.7795 51.3408ZM18.4701 66.311C18.1909 66.5903 17.8593 66.8119 17.4944 66.963C17.1295 67.1142 16.7384 67.192 16.3434 67.192C15.9484 67.192 15.5573 67.1142 15.1923 66.963C14.8274 66.8119 14.4959 66.5903 14.2166 66.311C13.6525 65.7469 13.3357 64.9817 13.3357 64.184C13.3357 63.3863 13.6525 62.6213 14.2166 62.0572L17.0463 59.2275C17.3252 58.9462 17.6569 58.7227 18.0223 58.5699C18.3877 58.4171 18.7798 58.338 19.1759 58.3371C19.572 58.3363 19.9643 58.4136 20.3305 58.5648C20.6966 58.716 21.0292 58.938 21.3093 59.218C21.5894 59.4981 21.8114 59.8308 21.9626 60.1969C22.1138 60.563 22.1912 60.9554 22.1903 61.3515C22.1895 61.7476 22.1104 62.1396 21.9576 62.505C21.8048 62.8705 21.5814 63.2022 21.3001 63.481L18.4701 66.311ZM22.42 73.2686C22.0249 73.2696 21.6334 73.1923 21.2684 73.0411C20.9033 72.8898 20.5719 72.6677 20.2932 72.3876C19.73 71.8231 19.4137 71.0581 19.4137 70.2606C19.4137 69.4632 19.73 68.6984 20.2932 68.1339L23.123 65.3039C23.6871 64.7398 24.4522 64.4229 25.2499 64.4229C26.0477 64.4229 26.8128 64.7398 27.3769 65.3039C27.941 65.868 28.2579 66.6331 28.2579 67.4309C28.2579 68.2287 27.941 68.9937 27.3769 69.5578L24.547 72.3876C24.2683 72.6678 23.9368 72.8899 23.5717 73.0411C23.2066 73.1923 22.8152 73.2697 22.42 73.2686ZM26.3699 78.4642C25.8058 77.9002 25.489 77.1351 25.489 76.3374C25.489 75.5398 25.8058 74.7747 26.3699 74.2107L29.1998 71.3808C29.7639 70.8167 30.5289 70.4998 31.3267 70.4998C32.1244 70.4998 32.8894 70.8167 33.4535 71.3808C34.0176 71.9448 34.3345 72.7099 34.3345 73.5076C34.3345 74.3054 34.0176 75.0704 33.4535 75.6345L30.6236 78.4642C30.0591 79.0276 29.2942 79.3439 28.4967 79.3439C27.6992 79.3439 26.9343 79.0276 26.3699 78.4642ZM39.5303 81.711L36.7004 84.5409C36.1359 85.1043 35.371 85.4207 34.5735 85.4207C33.7759 85.4207 33.011 85.1043 32.4465 84.5409C32.1672 84.2616 31.9456 83.9302 31.7945 83.5652C31.6433 83.2003 31.5655 82.8092 31.5655 82.4142C31.5655 82.0192 31.6433 81.6281 31.7945 81.2631C31.9456 80.8982 32.1672 80.5666 32.4465 80.2873L35.2764 77.4574C35.8405 76.8933 36.6055 76.5764 37.4033 76.5763C38.201 76.5763 38.9661 76.8932 39.5302 77.4572C40.0943 78.0213 40.4112 78.7863 40.4112 79.5841C40.4113 80.3818 40.0944 81.1469 39.5303 81.711ZM67.4339 64.184C67.4339 64.7789 67.2575 65.3605 66.927 65.8551C66.5965 66.3497 66.1267 66.7353 65.5771 66.9629C65.0274 67.1906 64.4227 67.2501 63.8392 67.134C63.2557 67.018 62.7198 66.7315 62.2991 66.3108L53.0626 57.0742C52.9429 56.9545 52.8008 56.8595 52.6443 56.7947C52.4879 56.7299 52.3203 56.6966 52.151 56.6966C51.9817 56.6966 51.8141 56.7299 51.6576 56.7947C51.5012 56.8595 51.3591 56.9544 51.2394 57.0741C51.1197 57.1938 51.0247 57.3359 50.9599 57.4924C50.8951 57.6488 50.8618 57.8164 50.8618 57.9857C50.8618 58.155 50.8951 58.3226 50.9599 58.479C51.0247 58.6355 51.1196 58.7776 51.2393 58.8973L60.4759 68.1339C60.7587 68.4124 60.9836 68.7441 61.1377 69.1099C61.2917 69.4758 61.3718 69.8685 61.3733 70.2654C61.3748 70.6624 61.2978 71.0557 61.1466 71.4227C60.9954 71.7897 60.773 72.1232 60.4924 72.4039C60.2117 72.6846 59.8782 72.9069 59.5112 73.0581C59.1442 73.2093 58.7508 73.2864 58.3539 73.2849C57.957 73.2833 57.5643 73.2032 57.1984 73.0492C56.8326 72.8952 56.5008 72.6703 56.2223 72.3874L46.9859 63.1509C46.7442 62.9091 46.4163 62.7733 46.0744 62.7733C45.7325 62.7733 45.4046 62.9091 45.1628 63.1509C44.9211 63.3926 44.7853 63.7205 44.7853 64.0624C44.7853 64.4043 44.9211 64.7322 45.1628 64.9739L54.3992 74.2105C54.6831 74.4888 54.909 74.8205 55.0639 75.1866C55.2188 75.5527 55.2996 75.9459 55.3016 76.3434C55.3036 76.741 55.2268 77.1349 55.0756 77.5026C54.9244 77.8702 54.7018 78.2042 54.4207 78.4853C54.1396 78.7664 53.8056 78.989 53.438 79.1403C53.0703 79.2915 52.6763 79.3683 52.2788 79.3663C51.8813 79.3643 51.4881 79.2836 51.122 79.1287C50.7559 78.9738 50.4241 78.7479 50.1458 78.4641L40.9091 69.2275C40.7894 69.1078 40.6473 69.0128 40.4909 68.9479C40.3345 68.8831 40.1669 68.8498 39.9976 68.8497C39.8283 68.8497 39.6606 68.883 39.5042 68.9478C39.3477 69.0125 39.2056 69.1075 39.0859 69.2272C38.9661 69.3468 38.8711 69.489 38.8063 69.6454C38.7415 69.8018 38.7081 69.9694 38.7081 70.1387C38.7081 70.308 38.7414 70.4757 38.8061 70.6321C38.8709 70.7885 38.9658 70.9307 39.0855 71.0504L48.3221 80.287C48.605 80.5654 48.8299 80.8971 48.984 81.263C49.1381 81.6288 49.2183 82.0215 49.2198 82.4184C49.2214 82.8154 49.1445 83.2087 48.9933 83.5757C48.8422 83.9428 48.6199 84.2763 48.3392 84.557C48.0586 84.8377 47.7252 85.0601 47.3582 85.2114C46.9912 85.3626 46.5979 85.4398 46.2009 85.4383C45.804 85.4368 45.4113 85.3568 45.0454 85.2028C44.6795 85.0489 44.3478 84.824 44.0692 84.5412L42.1143 82.5863C42.6523 81.7419 42.9534 80.7683 42.9862 79.7676C43.019 78.7669 42.7822 77.7757 42.3007 76.8979C41.8191 76.02 41.1105 75.2877 40.2489 74.7776C39.3873 74.2675 38.4045 73.9983 37.4032 73.9982C37.2303 73.9982 37.0586 74.0068 36.8884 74.0223C36.9039 73.8521 36.9125 73.6806 36.9125 73.5077C36.9124 72.0262 36.3239 70.6055 35.2763 69.5579C34.2288 68.5103 32.808 67.9217 31.3266 67.9216C31.1537 67.9216 30.982 67.9302 30.8118 67.9457C30.8273 67.7755 30.8359 67.604 30.8359 67.4309C30.8357 65.9495 30.2472 64.5287 29.1996 63.4812C28.1521 62.4336 26.7314 61.8451 25.2499 61.845C25.0768 61.845 24.9051 61.8535 24.735 61.869C24.7505 61.6989 24.7591 61.5272 24.7591 61.3542C24.7599 59.906 24.1975 58.5142 23.1907 57.4731C22.1839 56.432 20.8117 55.8232 19.3642 55.7755C19.1553 54.6068 19.0783 53.4183 19.1346 52.2323L19.3352 52.0317L19.3369 52.03L34.5886 36.7785C34.6073 36.7598 34.6238 36.7399 34.6412 36.7201C36.6625 37.8272 38.8648 38.5655 41.1449 38.9003L33.3538 47.6077C32.6717 48.3708 32.3075 49.3661 32.3358 50.3892C32.3642 51.4124 32.7831 52.3859 33.5065 53.1101C34.8794 54.4798 36.7395 55.249 38.6788 55.2489C40.6181 55.2489 42.4782 54.4797 43.8511 53.1099L50.7275 46.2318L66.5527 62.0572C66.8329 62.3358 67.0551 62.6673 67.2063 63.0323C67.3576 63.3974 67.4349 63.7888 67.4339 64.184ZM67.8491 54.1498C67 55.1545 66.0339 56.0542 64.9713 56.8296L51.8472 43.7056C51.7694 43.6451 51.6993 43.5752 51.6384 43.4976C51.5187 43.3779 51.3766 43.2829 51.2203 43.2181C51.0639 43.1533 50.8962 43.12 50.727 43.12C50.5577 43.12 50.3901 43.1533 50.2337 43.2181C50.0773 43.2829 49.9352 43.3779 49.8155 43.4976L42.0278 51.287C41.1389 52.1739 39.9344 52.672 38.6787 52.672C37.423 52.672 36.2185 52.1739 35.3295 51.287C35.0719 51.029 34.9227 50.6821 34.9126 50.3176C34.9026 49.9531 35.0324 49.5985 35.2754 49.3266L44.4222 39.104C47.5671 39.04 50.6494 38.2133 53.4041 36.6948C53.5749 36.9165 53.7598 37.127 53.9577 37.3249L68.663 52.0302C68.8056 52.1729 68.9543 52.3074 69.1074 52.435C68.7255 53.0332 68.3052 53.606 67.8491 54.1498ZM75.9539 50.208C75.595 50.5671 75.1688 50.852 74.6997 51.0464C74.2307 51.2407 73.7279 51.3407 73.2201 51.3407C72.7124 51.3406 72.2096 51.2405 71.7406 51.0461C71.2715 50.8516 70.8454 50.5667 70.4866 50.2075L55.7808 35.5018C55.7147 35.4349 55.6511 35.3656 55.59 35.294C56.9145 34.3161 58.1112 33.1761 59.1524 31.9007L76.5235 49.6384L75.9539 50.208Z" fill="url(#paint0_linear_774_4591)"/>
<defs>
<linearGradient id="paint0_linear_774_4591" x1="15.8072" y1="34.3741" x2="78.1259" y2="54.7223" gradientUnits="userSpaceOnUse">
<stop stop-color="#115846"/>
<stop offset="1" stop-color="#CC903F"/>
</linearGradient>
</defs>
</svg>
