<svg width="18" height="20" viewBox="0 0 18 20" fill="none" xmlns="http://www.w3.org/2000/svg">
<path fill-rule="evenodd" clip-rule="evenodd" d="M0.700195 8.31776C0.700195 3.71789 4.54408 0 9.19364 0C13.8563 0 17.7002 3.71789 17.7002 8.31776C17.7002 10.6357 16.8572 12.7876 15.4697 14.6116C13.939 16.6235 12.0524 18.3765 9.92874 19.7524C9.44271 20.0704 9.00407 20.0944 8.47064 19.7524C6.33493 18.3765 4.44828 16.6235 2.9307 14.6116C1.54218 12.7876 0.700195 10.6357 0.700195 8.31776ZM6.39453 8.57726C6.39453 10.1182 7.65196 11.3302 9.19375 11.3302C10.7365 11.3302 12.0061 10.1182 12.0061 8.57726C12.0061 7.04831 10.7365 5.77734 9.19375 5.77734C7.65196 5.77734 6.39453 7.04831 6.39453 8.57726Z" fill="#115846"/>
</svg>
