<svg width="36" height="36" viewBox="0 0 36 36" fill="none" xmlns="http://www.w3.org/2000/svg">
<path d="M31.8697 0.295898L4.24305 0.295898C2.07239 0.295898 0.296387 2.0719 0.296387 4.24257L0.296387 31.8692C0.296387 34.0419 2.07239 35.8159 4.24305 35.8159H18.0564V22.0026L14.1097 22.0026V17.1186L18.0564 17.1186L18.0564 13.0732C18.0564 8.80294 20.4481 5.80347 25.488 5.80347L29.0459 5.80742V10.948H26.6838C24.7223 10.948 23.9764 12.4201 23.9764 13.7856L23.9764 17.1205H29.0439L27.9231 22.0026H23.9764V35.8159L31.8697 35.8159C34.0404 35.8159 35.8164 34.0419 35.8164 31.8692L35.8164 4.24257C35.8164 2.0719 34.0404 0.295898 31.8697 0.295898Z" fill="#515151" fill-opacity="0.6"/>
</svg>
