<svg width="37" height="35" viewBox="0 0 37 35" fill="none" xmlns="http://www.w3.org/2000/svg">
<path d="M33.7026 0.17334L3.24894 0.17334C1.85351 0.17334 0.719727 1.29494 0.719727 2.67181L0.719727 32.3285C0.719727 33.7054 1.85351 34.827 3.24894 34.827L33.7026 34.827C35.098 34.827 36.2397 33.7054 36.2397 32.3285L36.2397 2.67181C36.2397 1.29494 35.098 0.17334 33.7026 0.17334ZM11.455 29.8765H6.19044L6.19044 13.3386L11.4629 13.3386L11.4629 29.8765H11.455ZM8.82273 11.08C7.13394 11.08 5.77023 9.74177 5.77023 8.10191C5.77023 6.46205 7.13394 5.12386 8.82273 5.12386C10.5036 5.12386 11.8752 6.46205 11.8752 8.10191C11.8752 9.74951 10.5115 11.08 8.82273 11.08ZM31.1892 29.8765H25.9247V21.8319C25.9247 19.9135 25.885 17.446 23.1893 17.446C20.446 17.446 20.0258 19.5345 20.0258 21.6926V29.8765L14.7612 29.8765L14.7612 13.3386H19.8117L19.8117 15.5973H19.8831C20.5887 14.2978 22.3092 12.9287 24.8702 12.9287C30.1982 12.9287 31.1892 16.3554 31.1892 20.8108V29.8765Z" fill="#515151" fill-opacity="0.5"/>
</svg>
