<svg width="40" height="40" viewBox="0 0 40 40" fill="none" xmlns="http://www.w3.org/2000/svg">
<path d="M26.0749 9.55402L30.2479 13.904V30.446H14.6592V30.5H30.3012V13.9588L26.0749 9.55402Z" fill="#909090"/>
<path d="M26.0237 9.5H14.6064V30.446H30.2484V13.9047L26.0237 9.5Z" fill="#F4F4F4"/>
<path d="M14.4917 10.625H9.69922V15.7452H24.7742V10.625H14.4917Z" fill="#7A7B7C"/>
<path d="M24.8536 15.6582H9.7959V10.5342H24.8536V15.6582Z" fill="#DD2025"/>
<path d="M14.7888 11.4005H13.8086V15.0005H14.5796V13.7863L14.7498 13.796C14.9153 13.7937 15.0793 13.7641 15.2351 13.7083C15.3721 13.6617 15.4979 13.5874 15.6048 13.49C15.7145 13.3981 15.8006 13.2814 15.8561 13.1495C15.932 12.931 15.9589 12.6985 15.9348 12.4685C15.9306 12.3041 15.9017 12.1413 15.8493 11.9855C15.8021 11.8729 15.7319 11.7713 15.6432 11.6874C15.5544 11.6034 15.4492 11.5389 15.3341 11.498C15.2349 11.4613 15.1321 11.4351 15.0273 11.42C14.9482 11.4071 14.8682 11.4006 14.7881 11.4005M14.6463 13.121H14.5796V12.011H14.7243C14.7882 12.0064 14.8523 12.0162 14.9119 12.0397C14.9715 12.0632 15.025 12.0998 15.0686 12.1468C15.1588 12.2675 15.207 12.4145 15.2058 12.5653C15.2058 12.7498 15.2058 12.917 15.0393 13.0348C14.9194 13.1008 14.7829 13.1313 14.6463 13.121ZM17.3996 11.3908C17.3163 11.3908 17.2353 11.3968 17.1783 11.399L16.9998 11.4035H16.4148V15.0035H17.1033C17.3664 15.0103 17.6283 14.9657 17.8743 14.8723C18.0724 14.794 18.2478 14.6674 18.3843 14.504C18.5182 14.3399 18.6137 14.148 18.6641 13.9423C18.7232 13.7097 18.752 13.4704 18.7496 13.2305C18.7643 12.9471 18.7423 12.663 18.6843 12.3853C18.6288 12.181 18.5261 11.9927 18.3843 11.8355C18.2732 11.7084 18.1365 11.6062 17.9831 11.5355C17.8517 11.4746 17.7135 11.4298 17.5713 11.402C17.5148 11.3927 17.4576 11.3885 17.4003 11.3893M17.2638 14.342H17.1888V12.044H17.1986C17.3532 12.0261 17.5097 12.054 17.6486 12.1243C17.7503 12.2055 17.8332 12.3079 17.8916 12.4243C17.9546 12.5468 17.9909 12.6812 17.9981 12.8188C18.0048 12.9838 17.9981 13.1188 17.9981 13.2305C18.0009 13.3592 17.9926 13.4879 17.9733 13.6153C17.9497 13.7458 17.907 13.8722 17.8466 13.9903C17.7783 14.1004 17.685 14.1929 17.5743 14.2603C17.4819 14.3203 17.3722 14.3482 17.2623 14.3398M21.0723 11.4035H19.2498V15.0035H20.0208V13.5755H20.9958V12.9065H20.0208V12.0725H21.0708V11.4035" fill="#464648"/>
<path d="M24.3355 23.1913C24.3355 23.1913 26.7265 22.7578 26.7265 23.5745C26.7265 24.3913 25.2453 24.059 24.3355 23.1913ZM22.5678 23.2535C22.1878 23.3372 21.8176 23.4601 21.463 23.6203L21.763 22.9453C22.063 22.2703 22.3743 21.35 22.3743 21.35C22.7314 21.9531 23.1479 22.5189 23.6178 23.039C23.2641 23.0917 22.9135 23.1638 22.5678 23.255V23.2535ZM21.6213 18.3785C21.6213 17.6668 21.8515 17.4725 22.0308 17.4725C22.21 17.4725 22.4118 17.5588 22.4185 18.1768C22.36 18.7982 22.2299 19.4107 22.0308 20.0023C21.757 19.506 21.6158 18.9475 21.6205 18.3808L21.6213 18.3785ZM18.1345 26.2655C17.401 25.8268 19.6728 24.476 20.0845 24.4325C20.0823 24.4333 18.9025 26.7245 18.1345 26.2655ZM27.4248 23.6713C27.4173 23.5963 27.3498 22.766 25.8723 22.8013C25.2564 22.7905 24.6408 22.8339 24.0325 22.931C23.4429 22.3376 22.9354 21.6679 22.5235 20.9398C22.7829 20.1892 22.94 19.4072 22.9908 18.6148C22.969 17.7148 22.7538 17.1988 22.0638 17.2063C21.3738 17.2138 21.2733 17.8175 21.364 18.716C21.4528 19.3198 21.6205 19.9093 21.8628 20.4695C21.8628 20.4695 21.544 21.4618 21.1225 22.4488C20.701 23.4358 20.413 23.9533 20.413 23.9533C19.68 24.1916 18.9899 24.5461 18.3693 25.0033C17.7513 25.5785 17.5 26.0203 17.8255 26.462C18.106 26.843 19.0878 26.9293 19.9653 25.7795C20.4307 25.1851 20.8566 24.5607 21.2403 23.9105C21.2403 23.9105 22.5783 23.5438 22.9945 23.4433C23.4108 23.3428 23.914 23.2633 23.914 23.2633C23.914 23.2633 25.1358 24.4925 26.314 24.449C27.4923 24.4055 27.4353 23.7448 27.4278 23.6728" fill="#DD2025"/>
<path d="M25.9658 9.55774V13.9625H30.1906L25.9658 9.55774Z" fill="#909090"/>
<path d="M26.0234 9.5V13.9047H30.2482L26.0234 9.5Z" fill="#F4F4F4"/>
<path d="M14.7312 11.3428H13.751V14.9428H14.525V13.7293L14.696 13.739C14.8615 13.7367 15.0254 13.7071 15.1812 13.6513C15.3182 13.6048 15.4441 13.5305 15.551 13.433C15.6598 13.3408 15.7451 13.2241 15.8 13.0925C15.8759 12.874 15.9028 12.6415 15.8787 12.4115C15.8745 12.2472 15.8456 12.0844 15.7932 11.9285C15.746 11.8159 15.6758 11.7143 15.5871 11.6304C15.4983 11.5464 15.3931 11.4819 15.278 11.441C15.1783 11.4039 15.075 11.3775 14.9697 11.3623C14.8906 11.3494 14.8106 11.3429 14.7305 11.3428M14.5887 13.0633H14.522V11.9533H14.6675C14.7314 11.9487 14.7955 11.9585 14.8551 11.982C14.9146 12.0055 14.9682 12.042 15.0117 12.089C15.102 12.2098 15.1502 12.3568 15.149 12.5075C15.149 12.692 15.149 12.8593 14.9825 12.977C14.8626 13.0431 14.726 13.0728 14.5895 13.0625M17.342 11.333C17.2587 11.333 17.1777 11.339 17.1207 11.3413L16.9445 11.3458H16.3595V14.9458H17.048C17.3111 14.9525 17.5729 14.9079 17.819 14.8145C18.0171 14.7363 18.1924 14.6097 18.329 14.4463C18.4628 14.2821 18.5584 14.0902 18.6087 13.8845C18.6679 13.652 18.6966 13.4127 18.6942 13.1728C18.7089 12.8894 18.687 12.6053 18.629 12.3275C18.5735 12.1233 18.4707 11.935 18.329 11.7778C18.2178 11.6506 18.0811 11.5484 17.9277 11.4778C17.7963 11.4169 17.6581 11.372 17.516 11.3443C17.4595 11.335 17.4022 11.3307 17.345 11.3315M17.2085 14.2843H17.1335V11.9863H17.1432C17.2978 11.9684 17.4543 11.9963 17.5932 12.0665C17.695 12.1478 17.7779 12.2501 17.8362 12.3665C17.8992 12.489 17.9355 12.6235 17.9427 12.761C17.9495 12.926 17.9427 13.061 17.9427 13.1728C17.9455 13.3015 17.9372 13.4302 17.918 13.5575C17.8944 13.6881 17.8517 13.8144 17.7912 13.9325C17.7229 14.0426 17.6297 14.1351 17.519 14.2025C17.4265 14.2625 17.3169 14.2904 17.207 14.282M21.0147 11.3458H19.1922V14.9458H19.9632V13.5178H20.9382V12.8488H19.9632V12.0148H21.0132V11.3458" fill="white"/>
</svg>
