<svg width="21" height="21" viewBox="0 0 21 21" fill="none" xmlns="http://www.w3.org/2000/svg">
<path d="M20.7495 19.689L15.0855 14.025C16.4466 12.391 17.1253 10.2951 16.9805 8.1734C16.8356 6.0517 15.8784 4.06752 14.3079 2.63361C12.7374 1.19971 10.6745 0.426482 8.54844 0.474791C6.42236 0.5231 4.39674 1.38922 2.89298 2.89298C1.38922 4.39674 0.5231 6.42236 0.474791 8.54844C0.426482 10.6745 1.19971 12.7374 2.63361 14.3079C4.06752 15.8784 6.0517 16.8356 8.1734 16.9805C10.2951 17.1253 12.391 16.4466 14.025 15.0855L19.689 20.7495L20.7495 19.689ZM1.99948 8.74948C1.99948 7.41445 2.39536 6.10941 3.13706 4.99938C3.87876 3.88935 4.93296 3.02418 6.16636 2.51329C7.39976 2.0024 8.75696 1.86873 10.0663 2.12918C11.3757 2.38963 12.5784 3.0325 13.5224 3.97651C14.4665 4.92051 15.1093 6.12324 15.3698 7.43262C15.6302 8.74199 15.4966 10.0992 14.9857 11.3326C14.4748 12.566 13.6096 13.6202 12.4996 14.3619C11.3895 15.1036 10.0845 15.4995 8.74948 15.4995C6.95987 15.4975 5.24414 14.7857 3.9787 13.5203C2.71326 12.2548 2.00146 10.5391 1.99948 8.74948Z" fill="black"/>
</svg>
