<svg width="1394" height="393" viewBox="0 0 1394 393" fill="none" xmlns="http://www.w3.org/2000/svg">
<g clip-path="url(#clip0_735_5423)">
<g filter="url(#filter0_f_735_5423)">
<path d="M358.16 364.108L358.016 363.858H357.727H147.639L272 152.829L453.562 473.817L453.706 474.071H453.997H580.232H581.102L580.664 473.319L270.147 -59.5979L269.712 -60.3449L269.281 -59.5951L-36.6241 473.322L-37.0548 474.072L-36.1896 474.071L420.459 473.322L421.324 473.32L420.891 472.571L358.16 364.108Z" stroke="#115846" stroke-opacity="0.8"/>
<mask id="path-2-outside-1_735_5423" maskUnits="userSpaceOnUse" x="533.376" y="-83.5957" width="378" height="532" fill="black">
<rect fill="white" x="533.376" y="-83.5957" width="378" height="532"/>
<path d="M597.794 447.349L535.376 339.852L753.173 -29.2702L910.605 -82.5957"/>
</mask>
<path d="M598.224 447.603L911.036 -82.3415L910.174 -82.8499L597.363 447.095L598.224 447.603ZM535.376 339.852L534.515 339.344L534.218 339.848L534.512 340.355L535.376 339.852ZM753.173 -29.2702L752.852 -30.2173L752.501 -30.0982L752.312 -29.7784L753.173 -29.2702ZM598.659 446.847L536.241 339.35L534.512 340.355L596.929 447.851L598.659 446.847ZM536.238 340.361L754.035 -28.762L752.312 -29.7784L534.515 339.344L536.238 340.361ZM753.494 -28.3231L910.926 -81.6486L910.284 -83.5428L752.852 -30.2173L753.494 -28.3231Z" fill="#115846" fill-opacity="0.8" mask="url(#path-2-outside-1_735_5423)"/>
</g>
<g opacity="0.2">
<g filter="url(#filter1_f_735_5423)">
<ellipse cx="675.5" cy="153.977" rx="196.5" ry="134.086" fill="url(#paint0_linear_735_5423)" fill-opacity="0.5"/>
</g>
<g filter="url(#filter2_f_735_5423)">
<ellipse cx="147.5" cy="134.086" rx="250.5" ry="171.123" fill="url(#paint1_linear_735_5423)" fill-opacity="0.5"/>
</g>
</g>
</g>
<defs>
<filter id="filter0_f_735_5423" x="-43" y="-88" width="959" height="567" filterUnits="userSpaceOnUse" color-interpolation-filters="sRGB">
<feFlood flood-opacity="0" result="BackgroundImageFix"/>
<feBlend mode="normal" in="SourceGraphic" in2="BackgroundImageFix" result="shape"/>
<feGaussianBlur stdDeviation="2" result="effect1_foregroundBlur_735_5423"/>
</filter>
<filter id="filter1_f_735_5423" x="165" y="-294.11" width="1021" height="896.173" filterUnits="userSpaceOnUse" color-interpolation-filters="sRGB">
<feFlood flood-opacity="0" result="BackgroundImageFix"/>
<feBlend mode="normal" in="SourceGraphic" in2="BackgroundImageFix" result="shape"/>
<feGaussianBlur stdDeviation="157" result="effect1_foregroundBlur_735_5423"/>
</filter>
<filter id="filter2_f_735_5423" x="-417" y="-351.037" width="1129" height="970.246" filterUnits="userSpaceOnUse" color-interpolation-filters="sRGB">
<feFlood flood-opacity="0" result="BackgroundImageFix"/>
<feBlend mode="normal" in="SourceGraphic" in2="BackgroundImageFix" result="shape"/>
<feGaussianBlur stdDeviation="157" result="effect1_foregroundBlur_735_5423"/>
</filter>
<linearGradient id="paint0_linear_735_5423" x1="675.5" y1="19.8901" x2="675.5" y2="288.063" gradientUnits="userSpaceOnUse">
<stop stop-color="#115846"/>
<stop offset="1" stop-color="#25BE97"/>
</linearGradient>
<linearGradient id="paint1_linear_735_5423" x1="147.5" y1="-37.0366" x2="147.5" y2="305.209" gradientUnits="userSpaceOnUse">
<stop stop-color="#115846"/>
<stop offset="1" stop-color="#25BE97"/>
</linearGradient>
<clipPath id="clip0_735_5423">
<rect width="1440" height="393" fill="white"/>
</clipPath>
</defs>
</svg>
