<svg width="36" height="37" viewBox="0 0 36 37" fill="none" xmlns="http://www.w3.org/2000/svg">
<path d="M5.51423 0.73999C2.71544 0.73999 0.439941 3.01549 0.439941 5.81428L0.439941 31.1857C0.439941 33.9845 2.71544 36.26 5.51423 36.26L30.8857 36.26C33.6844 36.26 35.9599 33.9845 35.9599 31.1857L35.9599 5.81428C35.9599 3.01549 33.6844 0.73999 30.8857 0.73999L5.51423 0.73999ZM29.07 7.39999L20.8402 16.8033L30.5209 29.6H22.9412L17.0107 21.8379L10.2159 29.6H6.4498L15.2505 19.5386L5.96616 7.39999L13.7362 7.39999L19.1038 14.4961L25.3039 7.39999L29.07 7.39999ZM26.073 27.3483L12.6024 9.53278H10.3586L23.9799 27.3483H26.0651H26.073Z" fill="#515151" fill-opacity="0.5"/>
</svg>
