<svg width="47" height="37" viewBox="0 0 47 37" fill="none" xmlns="http://www.w3.org/2000/svg">
<path d="M46.385 8.58285C46.385 4.42046 43.4186 1.07206 39.7531 1.07206C34.7881 0.832487 29.7245 0.73999 24.5498 0.73999L22.9367 0.73999C17.7745 0.73999 12.702 0.832488 7.73699 1.07298C4.08047 1.07298 1.11402 4.43989 1.11402 8.60228C0.88997 11.8943 0.794972 15.1872 0.80035 18.4801C0.791388 21.773 0.892958 25.069 1.10506 28.3681C1.10506 32.5305 4.07151 35.9066 7.72803 35.9066C12.944 36.1564 18.2943 36.2673 23.7343 36.2581C29.1832 36.2766 34.5186 36.1594 39.7405 35.9066C43.406 35.9066 46.3725 32.5305 46.3725 28.3681C46.5876 25.0659 46.6861 21.773 46.6772 18.4708C46.6975 15.1779 46.6001 11.8819 46.385 8.58285ZM19.3518 27.5541L19.3518 9.37833L32.3468 18.4616L19.3518 27.5541Z" fill="#515151" fill-opacity="0.5"/>
</svg>
